<svg width="180" height="24" viewBox="0 0 180 24" fill="none" xmlns="http://www.w3.org/2000/svg">
<path d="M0.0880001 23V0.729999H3.658V10.318H11.376V0.729999H14.946V23H11.376V13.514H3.658V23H0.0880001ZM23.344 20.076C23.9787 20.076 24.6813 19.9287 25.452 19.634C26.2227 19.3393 26.8347 19.0107 27.288 18.648V16.268C25.928 16.1547 24.8173 16.098 23.956 16.098C22.0747 16.098 21.134 16.8007 21.134 18.206C21.134 19.4527 21.8707 20.076 23.344 20.076ZM22.8 23.374C19.1733 23.374 17.36 21.6513 17.36 18.206C17.36 16.37 17.938 15.0893 19.094 14.364C20.2727 13.616 21.8933 13.242 23.956 13.242C24.9307 13.242 26.0413 13.2987 27.288 13.412C27.288 12.052 27.0953 11.1227 26.71 10.624C26.3247 10.1253 25.656 9.876 24.704 9.876C23.752 9.876 22.6413 9.98933 21.372 10.216C20.1027 10.4427 19.128 10.6693 18.448 10.896L17.802 7.666C20.182 6.94067 22.5053 6.578 24.772 6.578C27.0387 6.578 28.6027 7.07667 29.464 8.074C30.348 9.07133 30.79 10.76 30.79 13.14V20.042L31.164 23.034L27.662 23.374L27.322 21.81C25.418 22.8527 23.9107 23.374 22.8 23.374ZM35.142 22.252L35.89 19.158C38.0433 19.838 39.7547 20.178 41.024 20.178C42.2933 20.178 43.1547 20.0533 43.608 19.804C44.0613 19.5773 44.288 19.1693 44.288 18.58C44.288 17.9907 44.084 17.5713 43.676 17.322C43.268 17.0727 42.4973 16.812 41.364 16.54C39.12 15.996 37.556 15.3953 36.672 14.738C35.788 14.058 35.346 12.9587 35.346 11.44C35.346 8.19867 37.4313 6.578 41.602 6.578C43.3927 6.578 45.4667 6.87267 47.824 7.462L47.178 10.692C44.934 10.0573 43.2 9.74 41.976 9.74C40.752 9.74 39.9247 9.85333 39.494 10.08C39.086 10.284 38.882 10.6467 38.882 11.168C38.882 11.6893 39.086 12.0747 39.494 12.324C39.9247 12.5507 41.0127 12.902 42.758 13.378C44.5033 13.854 45.784 14.4093 46.6 15.044C47.416 15.656 47.824 16.71 47.824 18.206C47.824 21.6287 45.716 23.34 41.5 23.34C39.528 23.34 37.4087 22.9773 35.142 22.252ZM55.406 11.1V23H51.904V0.321998H55.406V7.802C57.242 6.986 58.6813 6.578 59.724 6.578C61.6733 6.578 63.0447 7.14467 63.838 8.278C64.654 9.41133 65.062 11.066 65.062 13.242V23H61.56V13.174C61.56 12.222 61.3673 11.44 60.982 10.828C60.6193 10.1933 60.132 9.876 59.52 9.876C58.4093 9.876 57.038 10.284 55.406 11.1ZM69.006 9.978V6.85H71.76V2.974L75.262 2.634V6.85H81.62V9.978H75.262V16.778C75.262 18.0247 75.3867 18.9087 75.636 19.43C75.8853 19.9287 76.3953 20.178 77.166 20.178C78.5033 20.178 80.0673 19.9627 81.858 19.532L82.436 22.558C80.464 23.0793 78.7073 23.34 77.166 23.34C74.99 23.34 73.5393 22.8527 72.814 21.878C72.1113 20.9033 71.76 19.2033 71.76 16.778V9.978H69.006ZM91.344 20.076C91.9787 20.076 92.6813 19.9287 93.452 19.634C94.2227 19.3393 94.8347 19.0107 95.288 18.648V16.268C93.928 16.1547 92.8173 16.098 91.956 16.098C90.0747 16.098 89.134 16.8007 89.134 18.206C89.134 19.4527 89.8707 20.076 91.344 20.076ZM90.8 23.374C87.1733 23.374 85.36 21.6513 85.36 18.206C85.36 16.37 85.938 15.0893 87.094 14.364C88.2727 13.616 89.8933 13.242 91.956 13.242C92.9307 13.242 94.0413 13.2987 95.288 13.412C95.288 12.052 95.0953 11.1227 94.71 10.624C94.3247 10.1253 93.656 9.876 92.704 9.876C91.752 9.876 90.6413 9.98933 89.372 10.216C88.1027 10.4427 87.128 10.6693 86.448 10.896L85.802 7.666C88.182 6.94067 90.5053 6.578 92.772 6.578C95.0387 6.578 96.6027 7.07667 97.464 8.074C98.348 9.07133 98.79 10.76 98.79 13.14V20.042L99.164 23.034L95.662 23.374L95.322 21.81C93.418 22.8527 91.9107 23.374 90.8 23.374ZM110.044 23.306C107.165 23.306 105.057 22.4107 103.72 20.62C102.405 18.8293 101.748 15.928 101.748 11.916C101.748 7.904 102.428 4.98 103.788 3.144C105.171 1.308 107.324 0.389999 110.248 0.389999C112.56 0.389999 114.645 0.707333 116.504 1.342L115.892 4.368C114.305 3.824 112.424 3.552 110.248 3.552C108.457 3.552 107.188 4.198 106.44 5.49C105.715 6.782 105.352 8.86733 105.352 11.746C105.352 14.6247 105.737 16.7327 106.508 18.07C107.301 19.3847 108.48 20.042 110.044 20.042C111.155 20.042 112.322 19.8947 113.546 19.6V14.33H110.384V11.202H116.946V22.15C114.793 22.9207 112.492 23.306 110.044 23.306ZM129.56 23L129.492 21.81C127.679 22.83 126.205 23.34 125.072 23.34C123.236 23.34 121.899 22.8187 121.06 21.776C120.221 20.7107 119.802 19.022 119.802 16.71V6.85H123.304V16.506C123.304 18.8407 124.063 20.008 125.582 20.008C126.783 20.008 128.075 19.5433 129.458 18.614V6.85H132.96V23H129.56ZM137.074 23V19.872H140.372V9.978H137.074V6.85H143.874L143.942 8.482C145.665 7.50733 147.637 6.89533 149.858 6.646H150.776V10.046H149.858C147.365 10.2727 145.393 10.794 143.942 11.61V19.94H149.008V23H137.074ZM163.56 23L163.492 21.81C161.679 22.83 160.205 23.34 159.072 23.34C157.236 23.34 155.899 22.8187 155.06 21.776C154.221 20.7107 153.802 19.022 153.802 16.71V6.85H157.304V16.506C157.304 18.8407 158.063 20.008 159.582 20.008C160.783 20.008 162.075 19.5433 163.458 18.614V6.85H166.96V23H163.56ZM174.95 23V18.07H179.88V23H174.95Z" fill="#1A1A1A"/>
</svg>
